<svg xmlns="http://www.w3.org/2000/svg" enable-background="new 0 0 64 64" viewBox="0 0 64 64"><path fill="#c6c1c1" d="M55.86,42.96c2.05,2.05,2.92,4.83,2.61,7.49c-0.11,0.91-1.24,1.27-1.89,0.62l-4.47-4.47
				c-0.83-0.83-2.19-0.84-3.04,0.01l-2.46,2.46c-0.83,0.83-0.84,2.2-0.01,3.04l4.47,4.47c0.65,0.65,0.29,1.8-0.62,1.9
				c-3.09,0.35-6.31-0.87-8.39-3.67c-1.51-2.06-2.05-4.63-1.6-7.05c0.26-1.42-0.14-2.89-1.16-3.91L20.16,24.71
				c-1.03-1.03-2.49-1.42-3.91-1.16c-2.42,0.45-5-0.09-7.05-1.6c-2.79-2.08-4.01-5.31-3.67-8.39c0.11-0.91,1.25-1.28,1.9-0.63
				l4.47,4.47c0.84,0.84,2.21,0.83,3.05,0l2.46-2.46c0.85-0.85,0.84-2.2,0-3.05l-4.47-4.47c-0.64-0.64-0.29-1.78,0.63-1.88
				c2.66-0.31,5.44,0.56,7.48,2.6c2.2,2.2,3.05,5.25,2.52,8.09c-0.26,1.44,0.13,2.91,1.16,3.94l19.12,19.12
				c1.03,1.03,2.5,1.42,3.93,1.16C50.62,39.92,53.67,40.76,55.86,42.96z"/><path fill="#e5e5e5" d="M42.87,41.34l0.38,1.35c0.09,0.33-0.21,0.63-0.54,0.54l-1.35-0.38c-0.07-0.02-0.14-0.06-0.19-0.11l-19.9-19.9
			c-0.05-0.05-0.09-0.12-0.11-0.19l-0.38-1.35c-0.09-0.33,0.21-0.63,0.54-0.54l1.35,0.38c0.07,0.02,0.14,0.06,0.19,0.11l19.9,19.9
			C42.81,41.2,42.85,41.27,42.87,41.34z"/><path fill="#506c72" d="M28.26,5.59c5.22-3.3,13.06-0.3,19.32,5.98l5.9,5.9c0.22,0.22,0.34,0.51,0.34,0.82l0,1.02
					c0,0.64,0.52,1.16,1.15,1.16l2.6,0.02c0.3,0,0.58,0.12,0.79,0.33l1.02,1.02c0.88,0.88,0.88,2.31,0,3.19l-5.41,5.41
					c-0.88,0.88-2.31,0.88-3.19,0l-1.05-1.05c-0.19-0.19-0.3-0.44-0.33-0.7l-0.21-2.47c-0.05-0.59-0.54-1.05-1.13-1.07l-1.21-0.03
					c-0.3-0.01-0.58-0.13-0.79-0.34l-7.22-7.22c-1.2-1.25-0.78-3.03-0.37-4.01c0.66-2.2-1.78-5.56-3.53-6.81
					C33.26,5.52,30.98,5.23,28.26,5.59z"/><path fill="#fbd984" d="M6.23,59.19l-1.7-1.7c-0.76-0.76-0.76-2,0-2.76l35.75-35.75l4.47,4.47L8.99,59.19
				C8.23,59.96,6.99,59.96,6.23,59.19z"/><rect width="6.32" height="24.21" x="14.13" y="34.33" fill="#687d87" transform="rotate(45.001 17.288 46.43)"/></svg>