<svg id="SvgjsSvg1001" width="288" height="288" xmlns="http://www.w3.org/2000/svg" version="1.1" xmlns:xlink="http://www.w3.org/1999/xlink" xmlns:svgjs="http://svgjs.com/svgjs"><defs id="SvgjsDefs1002"></defs><g id="SvgjsG1008"><svg xmlns="http://www.w3.org/2000/svg" enable-background="new 0 0 47.5 47.5" viewBox="0 0 47.5 47.5" width="288" height="288"><defs><clipPath id="a" clipPathUnits="userSpaceOnUse"><path d="M 0,38 38,38 38,0 0,0 0,38 Z" fill="#000000" class="color000 svgShape"></path></clipPath></defs><g clip-path="url(#a)" transform="matrix(1.25 0 0 -1.25 0 47.5)" fill="#000000" class="color000 svgShape"><path fill="#fc5185" d="m 0,0 0,-3 c 0,0 0,-3 3,-3 3,0 3,3 3,3 L 6,0 0,0 Z" transform="translate(16 7)" class="colordd2e44 svgShape"></path><path fill="#364f6b" d="m 0,0 c 0.041,3 -14,2 -14,-8 0,-4 0,-14 3,-14 4,0 10.945,18 11,22" transform="translate(15 35)" class="color272b2b svgShape"></path><path fill="#364f6b" d="m 0,0 c -0.041,3 14,2 14,-8 0,-4 0,-14 -3,-14 C 7,-22 0.055,-4 0,0" transform="translate(23 35)" class="color272b2b svgShape"></path><path fill="#f0f0f0" d="m 0,0 c 0,-7 -4,-7 -4,-7 l -18,0 c 0,0 -4,0 -4,7 0,0 1,22 13,22 C -1,22 0,0 0,0" transform="translate(32 15)" class="colorccd6dd svgShape"></path><path fill="#43dde6" d="m 0,0 0,0.025 -10,0 L -10,0 c -2.803,-0.253 -5,-2.606 -5,-5.475 0,-3.037 2.462,-5.5 5.5,-5.5 1.862,0 3.505,0.928 4.5,2.344 0.995,-1.416 2.638,-2.344 4.5,-2.344 3.038,0 5.5,2.463 5.5,5.5 C 5,-2.606 2.804,-0.253 0,0" transform="translate(24 14.975)" class="color8899a6 svgShape"></path><path fill="#364f6b" d="M 0,0 C 0,0 0,2 2,2 4,2 4,0 4,0 l 0,-2 c 0,0 0,-2 -2,-2 -2,0 -2,2 -2,2 l 0,2 z" transform="translate(12 21)" class="color272b2b svgShape"></path><path fill="#364f6b" d="M 0,0 C 0,0 0,2 2,2 4,2 4,0 4,0 l 0,-2 c 0,0 0,-2 -2,-2 -2,0 -2,2 -2,2 l 0,2 z" transform="translate(22 21)" class="color272b2b svgShape"></path><path fill="#364f6b" d="M 0,0 C -1,-1 2,-4 3,-4 4,-4 7,-1 6,0 5,1 1,1 0,0" transform="translate(16 13)" class="color272b2b svgShape"></path></g></svg></g></svg>